<?xml version="1.0" encoding="UTF-8"?>
<svg id="Calque_1" data-name="Calque 1" xmlns="http://www.w3.org/2000/svg" viewBox="0 0 113.42 141.21">
  <path d="M83.63,86.38c1.76-.2,3.54-.27,5.3-.3,3.75-.06,7.54.16,11.22.92,3.47.72,7.08,2.01,9.43,4.84,2.85,3.44,2.49,8.08,1.13,12.07-1.16,3.39-2.98,6.55-4.96,9.52-2.89,4.31-6.23,8.31-9.73,12.14-1.07,1.17-2.15,2.32-3.25,3.46-.09.09,1.32.94,1.66.59,4.04-4.2,7.94-8.57,11.37-13.29,2.33-3.21,4.5-6.62,6.01-10.31,1.69-4.15,2.61-9.21-.13-13.13-2.32-3.33-6.38-5.06-10.17-6.08-3.98-1.07-8.12-1.43-12.23-1.46-1.54-.01-3.07.02-4.61.11-.64.04-1.69-.08-2.29.18-.03.01-.07,0-.1.01-.38.04.08.34.19.41.31.18.8.36,1.16.32h0Z" style="fill: #fbdad5; stroke-width: 0px;"/>
  <path d="M48.28,119.22c-4.6-5.65-9.21-11.31-13.81-16.96-4.65-5.71-9.26-11.44-13.94-17.12-2.93-3.56-6.76-6.28-11.11-7.82-2.42-.86-5-1.34-7.49-1.93-.18-.04-.87.05-.92.29-.34,1.58-.67,3.15-1.01,4.73-.01.07.02.09.08.11,2.52.72,5.16,1.29,7.5,2.5,2.75,1.42,5.02,3.54,6.73,6.11,1.69,2.53,3.37,5.07,5.05,7.6l18.24,27.44c1.58,2.37,3.16,4.75,4.73,7.12.09.13.4.08.66-.02.17-.04.32-.11.36-.21,0,0,0,0,0,0,0,0,0-.01,0-.02,1.65-3.91,3.29-7.82,4.94-11.73.02-.03,0-.06-.02-.08Z" style="fill: #fbdad5; stroke-width: 0px;"/>
  <polygon points="47.66 78.56 40.99 140.42 96.99 141.21 87.5 78.17 47.66 78.56" style="fill: #365a49; stroke-width: 0px;"/>
  <path d="M75.29,54.56s.02-.04.03-.06c0,0,0,0,0,0,2.61.03,5.98-1.46,7.99-3.13,1.88-1.57,3.06-3.7,3.66-6.05.06-.23-.2-.42-.41-.35-4.64,1.71-8.95,3.75-11.15,8.24.26-3.01.37-6.03.35-9.08,0-.43,0-.86,0-1.29,2.42-.42,5.2-2.24,6.87-4,1.83-1.92,2.77-4.42,2.97-7.04.02-.27-.24-.45-.48-.31-4.12,2.41-7.85,5.07-9.35,9.55.02-2.76,0-5.57-.38-8.3,0,0,0,0,0,0,.21-1.2,3.53-2.14,4.54-2.68,1.01-.55,1.92-1.16,2.57-2.13,1.47-2.16,1.12-4.83.31-7.16-.06-.17-.35-.16-.37.03-.37,3.64-3.92,4.94-5.92,7.53-.72.93-1.17,1.92-1.37,2.98-.29-1.45-.71-2.86-1.32-4.21,1.9-1.49,3.54-4.49,4.16-6.8.69-2.56.34-5.2-.73-7.6-.11-.26-.43-.26-.57-.03-2.46,4.04-4.46,8.1-3.72,12.7-.53-1.03-1.04-2.04-1.47-3.09v-.02s-.03-.05-.04-.08c-.51-1.25-.91-2.55-1.05-3.97-.02-.18-.03-.35-.04-.52.03-.34.09-.65.2-.92.6-1.48,1.56-2.78,2.28-4.2,1.96-3.85,2.06-8.58.32-12.53-.04-.08-.17-.05-.16.04.27,1.89-.64,3.85-1.76,5.45-1.26,1.81-2.82,3.47-3.48,5.58-.84,2.69.17,6.35,1.75,9.24-2.8-3.1-6.82-4.34-11.06-5.28-.23-.05-.43.2-.35.41.91,2.27,2.38,4.23,4.48,5.53,2.19,1.37,5.72,2.39,8.29,2.02.01.02.03.04.04.06,0,.01.02.02.02.03,1.09,2.41,2.62,4.61,3.28,7.2.12.46.21.92.29,1.39-2.79-3.89-7.22-5.3-11.91-6.35-.23-.05-.43.2-.35.41.91,2.27,2.38,4.23,4.48,5.53,2.12,1.32,5.47,2.31,8,2.05.23,2.32.17,4.71.23,6.99.01.44.02.88.03,1.31-2.36-4.48-6.8-6.38-11.56-7.92-.24-.08-.41.21-.35.41.72,2.43,2.1,4.59,4.17,6.08,2.01,1.44,5.26,2.7,7.75,2.61.04,3.4-.02,6.79-.3,10.17-1.58-4.7-5.56-7.31-9.9-9.62-.21-.11-.47.08-.44.31.27,2.43,1.17,4.72,2.84,6.53,1.74,1.89,4.83,3.8,7.38,4.14-.23,2.39-.57,4.78-1.06,7.16-.04.17-.07.35-.11.52-.78-4.86-4.25-8.09-8.12-11.09-.17-.13-.49-.07-.51.18-.15,2.57.4,5.09,1.89,7.22.86,1.24,1.98,2.22,3.19,3.1,1,.73,2.01,1.7,3.24,1.96-.56,2.45-1.22,4.88-1.93,7.3-.17-4.9-3.16-8.53-6.6-12.01-.17-.17-.47-.04-.51.18-.49,2.58-.24,5.22,1.02,7.55,1.15,2.13,3.43,4.69,5.63,5.69,0,.03,0,.06,0,.09,0,0,0,.01,0,.02-1.1,3.6-2.3,7.17-3.47,10.72-.04.12.14.21.18.09,1.34-3.49,2.65-6.98,3.82-10.52.01-.01.03-.02.04-.03.01-.02.03-.03.04-.05,0,0,0,0,0,0,2.55.82,6.31.37,8.76-.72,2.17-.96,3.85-2.6,5.09-4.61.13-.21-.09-.46-.31-.44-5.03.26-9.85.96-13.28,4.77.77-2.4,1.47-4.83,2.06-7.3.04-.17.08-.34.12-.51,2.45.44,5.92-.41,8.09-1.58,2.25-1.21,3.89-3.18,4.92-5.49.09-.2-.06-.49-.31-.44-4.9.91-9.5,2.21-12.44,6.31.56-2.61.96-5.24,1.24-7.88,0,0,0-.01.01-.02Z" style="fill: #365a49; stroke-width: 0px;"/>
  <g>
    <path d="M80.26,103.32c-.55.69-1.1,1.37-1.65,2.06-.63-4.36-4.42-7.7-8.94-7.68-4.89.02-8.89,3.96-8.96,8.85,0,.63,1.31.61,1.32-.03.06-4.2,3.36-7.85,7.66-7.87,4.04,0,7.19,3.23,7.63,7.08-.6-.47-1.19-.94-1.79-1.4-.46-.37-1.58-.1-.9.43,1.02.81,2.05,1.61,3.07,2.42.21.17.75.43,1,.13l2.64-3.29c.4-.5-.75-1.13-1.09-.7Z" style="fill: #fbdad5; stroke-width: 0px;"/>
    <path d="M77.85,112.02c-.06,4.15-3.26,7.65-7.44,7.95-4.17.3-7.76-2.83-8.14-6.91.6.47,1.2.94,1.8,1.41.3.24,1.45-.29,1.18-.5-1.02-.81-2.05-1.61-3.07-2.42-.28-.22-.98.04-1.17.29-.88,1.1-1.76,2.2-2.64,3.29-.29.37.95.2,1.17-.08.57-.71,1.14-1.42,1.71-2.13.5,4.39,4.06,8.13,8.64,8.27,4.95.15,8.95-3.84,9.02-8.74,0-.59-1.04-1.24-1.06-.43Z" style="fill: #fbdad5; stroke-width: 0px;"/>
  </g>
</svg>