<?xml version="1.0" encoding="UTF-8"?>
<svg id="Calque_1" data-name="Calque 1" xmlns="http://www.w3.org/2000/svg" viewBox="0 0 125.46 138.99">
  <path d="M66.83,3.66v7.76c0,.95.77,1.72,1.72,1.72h3.6c.46,0,.9.18,1.22.51l5.03,5.03c.32.32.76.51,1.22.51h44.12c.95,0,1.72.77,1.72,1.72v21.55c0,.95-.77,1.72-1.72,1.72h-43.97c-.95,0-1.72.77-1.72,1.72h0c0,.95-.77,1.72-1.72,1.72h-28.68c-.78,0-1.46-.53-1.66-1.29-1.07-4.02-7.28-4.59-12.77-3.02-4.79,1.37-4.69,11.98-4.45,16.29.06.99-.73,1.82-1.72,1.82H10.67c-.91,0-1.67-.71-1.72-1.61C6.34,17.26,30.66,19.01,32.26,19.17c.06,0,.12,0,.18,0h12.19c.42,0,.82-.15,1.14-.43l5.92-5.18c.31-.28.72-.43,1.14-.43h2.8c.95,0,1.72-.77,1.72-1.72v-6.9c0-.95.77-1.72,1.72-1.72h7.76v.86Z" style="fill: #365a49; stroke-width: 0px;"/>
  <g>
    <rect x="101.15" y="18.39" width="2.96" height="26.42" style="fill: #fbdad5; stroke-width: 0px;"/>
    <rect x="106.64" y="18.39" width="2.96" height="26.42" style="fill: #fbdad5; stroke-width: 0px;"/>
  </g>
  <rect x="50.24" width="24.56" height="3.87" rx="1.06" ry="1.06" style="fill: #fbdad5; stroke-width: 0px;"/>
  <path d="M37.37,109.85l-18.27-37.44L1.63,112.11c-2.62,5.95-2.06,12.74,1.49,18.19,3.55,5.44,9.55,8.69,16.04,8.69,7.03,0,13.46-3.56,17.18-9.53,3.73-5.96,4.11-13.3,1.02-19.62Z" style="fill: #457862; stroke-width: 0px;"/>
  <g>
    <path d="M28.7,113.42c-.58.73-1.16,1.45-1.74,2.18-.48-3.6-3.3-6.76-7.02-7.16-4.42-.47-8.16,3.06-8.23,7.44,0,.27.66,1.03.67.66.06-3.61,2.75-6.76,6.39-7.17,3.92-.45,7.41,2.35,7.6,6.3-.65-.51-1.29-1.02-1.94-1.52-.45-.36-1.16.22-.62.64.9.71,1.8,1.42,2.7,2.12.18.15.58.14.74-.05.77-.97,1.55-1.93,2.32-2.9.39-.49-.52-.95-.85-.54Z" style="fill: #fbdad5; stroke-width: 0px;"/>
    <path d="M26.49,121.07c-.06,3.64-2.8,6.83-6.5,7.12-3.88.3-6.98-2.78-7.17-6.54.27.22.55.43.82.65.48.37.95.75,1.43,1.12.18.14-.13-.72-.31-.87-.9-.71-1.8-1.42-2.7-2.12-.03-.03-.06-.04-.09-.03-.77.97-1.55,1.93-2.32,2.9-.18.22.45.99.5.93.37-.46.73-.92,1.1-1.37.22-.28.44-.55.66-.83.52,3.77,3.71,6.77,7.6,6.93,4.32.18,7.9-3.25,7.97-7.55,0-.41-.97-.78-.98-.32Z" style="fill: #fbdad5; stroke-width: 0px;"/>
  </g>
</svg>